<?xml version="1.0" encoding="UTF-8" standalone="no"?>
<svg
   version="1.0"
   width="740.89996pt"
   height="841.09998pt"
   viewBox="0 0 740.89996 841.09998"
   preserveAspectRatio="xMidYMid"
   id="svg29"
   sodipodi:docname="ChatGPT-Image-9-ago-2025_-11_03_07-a.m..svg"
   inkscape:version="1.3.2 (091e20e, 2023-11-25, custom)"
   inkscape:export-filename="LogoRedSanPablo(blanco-negro).png"
   inkscape:export-xdpi="96"
   inkscape:export-ydpi="96"
   xmlns:inkscape="http://www.inkscape.org/namespaces/inkscape"
   xmlns:sodipodi="http://sodipodi.sourceforge.net/DTD/sodipodi-0.dtd"
   xmlns="http://www.w3.org/2000/svg"
   xmlns:svg="http://www.w3.org/2000/svg">
  <defs
     id="defs29" />
  <sodipodi:namedview
     id="namedview29"
     pagecolor="#ffffff"
     bordercolor="#000000"
     borderopacity="0.25"
     inkscape:showpageshadow="2"
     inkscape:pageopacity="0.0"
     inkscape:pagecheckerboard="0"
     inkscape:deskcolor="#d1d1d1"
     inkscape:document-units="pt"
     inkscape:zoom="0.48486328"
     inkscape:cx="518.70292"
     inkscape:cy="596.04431"
     inkscape:window-width="1920"
     inkscape:window-height="991"
     inkscape:window-x="1691"
     inkscape:window-y="-9"
     inkscape:window-maximized="1"
     inkscape:current-layer="g29"
     inkscape:export-bgcolor="#ffffff00" />
  <g
     transform="matrix(0.1,0,0,-0.1,-141.1,935.9)"
     fill="#000000"
     stroke="none"
     id="g29">
    <path
       d="m 4973,9072 c -224,-452 -362,-676 -748,-1222 -486,-685 -587,-849 -701,-1132 -195,-485 -200,-981 -16,-1435 189,-466 597,-852 1066,-1008 203,-68 283,-79 551,-79 209,0 252,2 335,21 245,55 484,159 670,291 122,86 316,280 402,402 37,52 96,151 132,220 140,273 196,511 196,840 0,338 -69,620 -233,947 -108,215 -196,350 -567,873 -454,640 -594,867 -825,1343 -60,124 -112,226 -115,226 -3,0 -69,-129 -147,-287 z m 385,-1602 c 45,-6 91,-14 102,-18 19,-7 18,-9 -10,-52 -24,-37 -30,-56 -30,-101 0,-78 -20,-102 -106,-123 -117,-30 -155,-59 -205,-158 -25,-50 -33,-58 -58,-58 -21,0 -38,10 -60,35 -39,45 -52,76 -81,195 -36,151 -61,186 -154,222 l -39,15 69,17 c 38,9 96,20 129,25 87,12 347,13 443,1 z m -783,-153 c 53,-36 143,-124 150,-148 10,-31 -3,-84 -25,-104 -43,-39 -112,-14 -202,71 -31,30 -61,54 -67,54 -15,0 -26,-22 -23,-51 4,-30 -60,-94 -126,-128 -90,-46 -94,-79 -21,-168 28,-35 66,-72 85,-84 32,-20 36,-20 59,-5 14,9 25,17 25,19 0,28 35,168 46,185 44,67 123,40 242,-81 77,-79 142,-168 142,-193 0,-29 -32,-44 -90,-44 -33,0 -71,-5 -85,-12 -22,-10 -25,-17 -25,-67 0,-31 -4,-61 -8,-68 -4,-6 -36,-24 -72,-39 -36,-15 -75,-34 -88,-42 -12,-8 -61,-72 -108,-143 -94,-140 -91,-127 -68,-246 9,-47 -16,-43 -56,7 -56,71 -108,84 -210,54 -64,-19 -110,-61 -110,-101 1,-40 34,-109 63,-128 24,-15 28,-15 66,4 22,12 49,21 60,21 37,0 50,-56 27,-112 -11,-25 35,-68 73,-68 24,0 34,-7 53,-42 36,-64 47,-67 119,-33 50,24 75,30 128,30 102,-1 143,-25 280,-164 124,-127 147,-142 256,-165 83,-17 111,-37 126,-84 15,-52 -1,-128 -50,-229 -40,-82 -67,-114 -187,-220 -43,-37 -105,-109 -158,-182 -48,-66 -91,-123 -96,-126 -14,-9 -170,46 -197,69 -24,21 -24,22 -13,106 35,254 30,277 -84,399 -119,128 -151,227 -111,341 23,65 19,86 -26,135 -52,57 -142,116 -285,189 -61,31 -127,71 -147,89 -26,23 -63,84 -128,216 l -92,184 12,79 c 41,264 187,534 411,758 133,133 219,197 352,261 94,45 125,46 183,6 z m 1639,-309 c 236,-237 349,-457 401,-780 18,-114 21,-406 5,-518 -44,-313 -159,-551 -376,-779 l -97,-102 -23,67 c -28,79 -30,129 -8,261 17,110 10,169 -31,239 -39,66 -87,84 -221,84 -138,0 -190,16 -254,79 -62,60 -77,119 -56,220 25,119 132,305 204,355 80,55 195,87 256,72 14,-3 51,-29 82,-56 64,-56 127,-80 207,-80 110,0 167,39 167,114 0,38 -5,46 -71,108 -39,38 -75,68 -78,68 -4,0 -15,-16 -24,-35 -21,-44 -61,-71 -87,-59 -10,5 -41,38 -67,74 -76,102 -133,108 -181,18 -37,-71 -80,-114 -127,-127 -94,-26 -142,-5 -152,66 -5,37 -2,46 25,73 21,20 40,30 61,30 46,0 65,26 84,115 26,121 48,153 135,196 40,20 84,47 97,59 26,24 51,77 41,87 -3,3 -37,0 -74,-7 -55,-10 -73,-10 -92,0 -20,11 -22,17 -17,62 6,51 40,119 73,150 21,18 74,48 88,48 4,0 54,-46 110,-102 z m -411,-184 c 48,-55 62,-149 27,-184 -27,-27 -76,-26 -94,3 -34,52 -32,146 5,186 26,27 34,27 62,-5 z"
       id="path1"
       style="fill:#000000;fill-opacity:1" />
    <path
       d="m 4153,3716 c -133,-43 -203,-131 -203,-252 0,-135 71,-203 270,-259 144,-41 170,-59 170,-123 0,-65 -72,-109 -161,-99 -60,7 -139,47 -172,87 l -26,31 -36,-40 c -20,-21 -45,-51 -57,-66 l -20,-26 28,-30 c 38,-39 149,-95 221,-110 120,-24 258,6 340,75 94,79 104,264 20,354 -38,42 -101,72 -221,106 -120,35 -151,53 -168,95 -20,53 37,111 110,111 42,0 144,-33 179,-58 l 29,-21 47,62 c 44,57 46,62 30,79 -9,10 -49,35 -89,55 -63,31 -84,36 -161,39 -57,3 -103,-1 -130,-10 z"
       id="path2"
       style="fill:#000000;fill-opacity:1" />
    <path
       d="m 3166,3513 c -44,-109 -123,-305 -176,-436 l -97,-238 99,3 100,3 35,88 35,87 h 182 181 l 35,-89 34,-90 98,-3 c 54,-2 98,-3 98,-3 0,1 -78,196 -174,435 l -174,435 -99,3 -99,3 z m 238,-174 c 32,-88 56,-161 55,-162 -2,-1 -56,0 -120,3 l -116,5 56,157 c 31,87 58,158 61,158 3,0 32,-72 64,-161 z"
       id="path3"
       style="fill:#000000;fill-opacity:1" />
    <path
       d="m 4890,3279 c -96,-237 -176,-434 -178,-438 -1,-3 43,-5 97,-3 l 99,3 35,87 35,87 h 182 182 l 35,-87 35,-87 94,-3 c 52,-2 94,-1 94,2 0,3 -78,199 -173,435 l -172,430 -95,3 -95,3 z m 280,209 c 0,-7 24,-79 54,-160 l 53,-147 -119,-3 c -65,-2 -118,-1 -118,1 0,2 26,75 57,162 51,141 73,185 73,147 z"
       id="path4"
       style="fill:#000000;fill-opacity:1" />
    <path
       d="m 5770,3274 1,-435 242,3 c 225,3 246,5 299,26 71,29 154,103 191,169 93,172 69,407 -57,541 -100,107 -188,132 -474,132 h -202 z m 451,249 c 53,-24 112,-86 130,-139 21,-64 17,-181 -9,-239 -50,-109 -102,-138 -264,-143 l -118,-4 v 277 278 l 108,-5 c 77,-4 121,-11 153,-25 z"
       id="path5"
       style="fill:#000000;fill-opacity:1" />
    <path
       d="m 6809,3275 -176,-435 h 97 97 l 34,88 35,87 h 184 184 l 34,-87 35,-87 94,-3 c 88,-3 94,-2 89,16 -2,10 -80,207 -173,437 l -167,419 h -96 -96 z m 335,62 c 31,-87 56,-159 56,-160 0,-1 -54,-2 -120,-2 -66,0 -120,2 -120,5 0,3 25,72 55,154 30,82 55,156 55,165 0,33 20,-10 74,-162 z"
       id="path6"
       style="fill:#000000;fill-opacity:1" />
    <path
       d="m 8251,2574 c -175,-47 -298,-185 -320,-360 -22,-178 36,-329 164,-426 87,-66 142,-83 280,-83 118,0 121,1 198,37 161,77 246,216 247,403 0,125 -38,222 -121,310 -109,116 -286,163 -448,119 z m 200,-160 c 75,-22 142,-91 165,-170 32,-111 4,-242 -65,-312 -46,-45 -85,-63 -150,-69 -158,-14 -269,89 -279,258 -5,95 15,165 66,221 72,80 157,103 263,72 z"
       id="path7"
       style="fill:#000000;fill-opacity:1" />
    <path
       d="m 1640,2571 c -164,-54 -244,-208 -178,-347 37,-79 104,-116 317,-174 115,-31 136,-144 35,-186 -74,-31 -187,-1 -248,66 l -35,39 -60,-68 -60,-67 54,-42 c 69,-54 130,-80 222,-94 128,-19 248,17 322,97 45,49 61,95 61,175 -1,133 -80,206 -284,260 -131,35 -159,56 -154,116 7,87 120,106 249,42 l 70,-35 45,56 44,56 -32,29 c -64,55 -133,78 -243,82 -55,2 -111,0 -125,-5 z"
       id="path8"
       style="fill:#000000;fill-opacity:1" />
    <path
       d="m 2355,2148 c -93,-232 -171,-425 -173,-430 -2,-4 41,-8 95,-8 h 98 l 35,90 35,90 h 175 175 l 35,-90 35,-90 h 97 96 l -171,428 -172,427 -95,3 -95,2 z m 324,53 58,-161 h -119 c -110,0 -120,2 -114,17 4,10 30,84 59,165 28,80 53,145 55,144 1,-2 29,-76 61,-165 z"
       id="path9"
       style="fill:#000000;fill-opacity:1" />
    <path
       d="m 3240,2140 v -430 h 90 90 l 2,272 3,272 194,-272 194,-272 h 89 88 v 430 430 h -90 -90 l -2,-276 -3,-275 -151,213 c -83,117 -170,241 -194,276 l -44,62 h -88 -88 z"
       id="path10"
       style="fill:#000000;fill-opacity:1" />
    <path
       d="m 4580,2141 v -431 h 95 95 v 144 144 l 133,4 c 112,3 140,7 185,27 166,74 206,318 73,451 -75,75 -108,83 -363,88 l -218,4 z m 405,253 c 46,-21 69,-69 63,-128 -10,-86 -60,-116 -195,-116 h -88 v 130 130 h 93 c 64,0 104,-5 127,-16 z"
       id="path11"
       style="fill:#000000;fill-opacity:1" />
    <path
       d="m 5620,2548 c -6,-13 -84,-206 -173,-430 l -163,-408 h 96 97 l 34,88 35,87 h 178 178 l 35,-87 35,-88 h 95 c 72,0 94,3 90,13 -2,6 -80,200 -172,430 l -167,417 h -94 c -88,0 -95,-1 -104,-22 z m 163,-345 c 31,-86 55,-158 53,-160 -2,-2 -55,-2 -118,-1 l -115,3 56,157 c 31,87 58,158 61,158 3,0 31,-71 63,-157 z"
       id="path12"
       style="fill:#000000;fill-opacity:1" />
    <path
       d="m 6340,2139 v -431 l 243,4 c 230,3 245,4 295,27 90,41 142,121 142,220 0,77 -48,155 -111,181 -37,16 -36,21 2,44 20,12 40,38 56,73 59,129 -15,272 -157,302 -28,6 -145,11 -260,11 h -210 z m 405,267 c 84,-36 70,-150 -23,-176 -20,-5 -76,-10 -124,-10 h -88 v 100 100 h 100 c 64,0 113,-5 135,-14 z m 41,-348 c 58,-31 69,-112 21,-156 -36,-34 -73,-42 -188,-42 h -109 v 111 111 l 123,-4 c 89,-3 130,-8 153,-20 z"
       id="path13"
       style="fill:#000000;fill-opacity:1" />
    <path
       d="m 7232,2140 3,-430 h 287 288 v 80 80 h -195 -195 v 350 350 h -95 -96 z"
       id="path14"
       style="fill:#000000;fill-opacity:1" />
    <path
       d="m 1995,1284 c -49,-25 -65,-45 -81,-101 -26,-89 1,-171 68,-214 27,-16 46,-19 97,-16 58,3 66,6 97,40 41,44 42,55 9,63 -19,5 -30,0 -51,-25 -42,-51 -118,-41 -149,19 -18,34 -20,112 -4,143 30,59 102,75 144,32 14,-13 25,-29 25,-34 0,-6 10,-6 30,0 36,13 37,18 8,54 -41,52 -132,71 -193,39 z"
       id="path15"
       style="fill:#000000;fill-opacity:1" />
    <path
       d="m 2445,1288 c -2,-7 -32,-84 -65,-171 -33,-87 -60,-161 -60,-163 0,-3 15,-4 33,-2 27,2 34,9 43,38 l 12,35 70,3 71,3 12,-41 c 11,-37 15,-40 46,-40 28,0 33,3 29,18 -3,9 -32,87 -65,172 -57,152 -59,155 -90,158 -19,2 -33,-2 -36,-10 z m 60,-142 23,-66 h -50 c -36,0 -49,4 -45,13 2,6 13,38 23,69 9,32 20,56 22,53 2,-2 15,-33 27,-69 z"
       id="path16"
       style="fill:#000000;fill-opacity:1" />
    <path
       d="M 2770,1121 V 948 l 93,4 c 110,5 148,23 177,83 25,52 25,118 1,172 -29,63 -58,77 -173,83 l -98,5 z m 191,90 c 26,-26 29,-36 29,-90 0,-84 -25,-112 -103,-119 l -57,-4 v 121 121 h 51 c 43,0 55,-5 80,-29 z"
       id="path17"
       style="fill:#000000;fill-opacity:1" />
    <path
       d="m 3222,1133 c -34,-93 -62,-171 -62,-175 0,-5 13,-8 30,-8 26,0 31,5 41,40 l 12,41 70,-3 70,-3 12,-35 c 10,-30 16,-35 48,-38 l 35,-3 -62,164 c -35,91 -66,169 -69,174 -3,5 -18,10 -34,11 -29,2 -30,0 -91,-165 z m 134,-50 c -2,-2 -24,-3 -48,-1 l -45,3 26,69 25,69 23,-68 c 13,-38 21,-70 19,-72 z"
       id="path18"
       style="fill:#000000;fill-opacity:1" />
    <path
       d="m 3895,1286 c -16,-7 -40,-24 -52,-37 -69,-76 -53,-228 30,-280 41,-26 135,-23 167,6 20,18 20,18 20,-3 0,-17 6,-22 25,-22 25,0 25,1 25,90 v 90 h -70 c -68,0 -70,-1 -70,-25 0,-22 4,-25 40,-25 48,0 53,-18 15,-55 -36,-37 -92,-34 -130,5 -26,27 -30,38 -30,90 0,44 6,66 21,87 46,61 124,54 162,-14 8,-13 12,-13 35,-1 l 27,13 -20,33 c -34,56 -126,79 -195,48 z"
       id="path19"
       style="fill:#000000;fill-opacity:1" />
    <path
       d="m 4333,1281 c -56,-26 -83,-79 -83,-161 0,-66 14,-102 55,-140 37,-35 145,-41 193,-11 51,33 72,76 72,149 0,113 -46,169 -143,178 -38,4 -63,0 -94,-15 z m 137,-58 c 77,-69 38,-223 -55,-223 -49,0 -74,15 -91,55 -53,127 55,250 146,168 z"
       id="path20"
       style="fill:#000000;fill-opacity:1" />
    <path
       d="m 4690,1268 c 0,-27 2,-28 50,-28 h 50 V 1095 950 h 30 30 v 145 145 h 50 c 48,0 50,1 50,28 v 27 h -130 -130 z"
       id="path21"
       style="fill:#000000;fill-opacity:1" />
    <path
       d="m 5105,1173 c -26,-70 -56,-149 -66,-175 l -19,-48 h 34 c 30,0 34,4 45,40 l 12,41 71,-3 71,-3 12,-35 c 10,-30 17,-35 47,-38 l 36,-3 -67,173 c -65,169 -67,173 -97,176 -31,3 -31,3 -79,-125 z m 120,-75 c 6,-16 1,-18 -43,-18 h -51 l 20,58 c 10,31 22,64 25,72 4,9 13,-6 24,-40 9,-30 21,-63 25,-72 z"
       id="path22"
       style="fill:#000000;fill-opacity:1" />
    <path
       d="m 5718,1292 -28,-3 V 1119 950 h 35 35 v 169 c 0,94 -3,171 -7,173 -5,2 -20,2 -35,0 z"
       id="path23"
       style="fill:#000000;fill-opacity:1" />
    <path
       d="m 6915,1286 c -123,-55 -129,-272 -9,-322 47,-20 123,-18 164,4 98,53 103,235 8,305 -34,26 -121,33 -163,13 z m 109,-46 c 39,-15 59,-63 54,-133 -4,-50 -9,-64 -32,-84 -80,-68 -178,12 -159,131 12,75 71,112 137,86 z"
       id="path24"
       style="fill:#000000;fill-opacity:1" />
    <path
       d="M 7300,1123 V 950 h 30 c 29,0 29,0 32,67 l 3,67 33,1 c 38,1 41,-2 73,-77 23,-56 25,-58 62,-58 h 37 l -36,71 -35,71 24,27 c 31,33 38,62 26,105 -14,52 -42,64 -153,68 l -96,3 z m 178,105 c 7,-7 12,-24 12,-38 0,-38 -18,-50 -77,-50 h -53 v 50 50 h 53 c 29,0 58,-5 65,-12 z"
       id="path25"
       style="fill:#000000;fill-opacity:1" />
    <path
       d="m 7680,1268 c 0,-27 2,-28 50,-28 h 50 V 1095 950 h 30 30 v 145 145 h 50 c 48,0 50,1 50,28 v 27 h -130 -130 z"
       id="path26"
       style="fill:#000000;fill-opacity:1" />
    <path
       d="m 8123,1263 c -8,-21 -39,-100 -68,-175 l -53,-138 h 34 c 30,0 34,4 45,40 l 12,40 h 69 68 l 16,-40 c 14,-35 20,-40 49,-40 h 33 l -66,175 c -64,170 -67,175 -95,175 -23,0 -31,-7 -44,-37 z m 81,-160 c 7,-22 4,-23 -38,-23 -25,0 -46,4 -46,8 0,4 10,37 22,72 l 21,64 17,-49 c 9,-28 20,-60 24,-72 z"
       id="path27"
       style="fill:#000000;fill-opacity:1" />
    <path
       d="m 5930,1188 c 0,-57 -3,-133 -7,-170 l -6,-68 h 30 30 l 7,103 c 4,56 4,111 0,122 -19,52 15,-6 52,-88 57,-129 68,-128 125,3 42,97 44,100 46,63 2,-21 5,-75 9,-120 l 6,-83 h 30 31 l -7,61 c -3,34 -6,111 -6,170 v 109 h -39 c -42,0 -34,12 -113,-166 l -20,-46 -45,106 -46,106 h -38 -39 z"
       id="path28"
       style="fill:#000000;fill-opacity:1" />
    <path
       d="M 6440,1120 V 950 h 35 35 v 64 64 l 65,4 c 50,3 70,9 90,28 31,29 41,80 25,121 -21,50 -44,59 -152,59 h -98 z m 178,108 c 17,-17 15,-64 -4,-82 -9,-10 -33,-16 -59,-16 h -43 l -4,55 -3,55 h 51 c 27,0 55,-5 62,-12 z"
       id="path29"
       style="fill:#000000;fill-opacity:1" />
  </g>
</svg>
